<svg xmlns="http://www.w3.org/2000/svg" viewBox="-262 394.3 70 52.5"><path fill="none" stroke="#444" stroke-width="2" stroke-miterlimit="10" d="M-220.6 419.5c0 8.5-6.9 15.4-15.4 15.4s-15.4-6.9-15.4-15.4 6.9-15.4 15.4-15.4 15.4 6.9 15.4 15.4zM-214.4 443.1c-1.8-2.6-3.9-4.5-6.7-6 0 0-4.8 5.9-14.9 6-10 .1-15.1-6-15.1-6-2.5 1.4-4.7 3.4-6.4 5.8"/><g fill="none" stroke="#00D3E6"><path d="M-212.2 406.6c-1.3 0-2.4 1.1-2.4 2.4v8c0 1.3 1.1 2.4 2.4 2.4h.6c1.3 0 2.4-1.1 2.4-2.4v-8c0-1.3-1.1-2.4-2.4-2.4h-.6zM-205.8 398.3c-1.3 0-2.4 1.1-2.4 2.4V417c0 1.3 1.1 2.4 2.4 2.4h.6c1.3 0 2.4-1.1 2.4-2.4v-16.2c0-1.3-1.1-2.4-2.4-2.4h-.6zM-199.5 402.9c-1.3 0-2.4 1.1-2.4 2.4V417c0 1.3 1.1 2.4 2.4 2.4h.6c1.3 0 2.4-1.1 2.4-2.4v-11.7c0-1.3-1.1-2.4-2.4-2.4h-.6z"/></g></svg>