<svg xmlns="http://www.w3.org/2000/svg" viewBox="-14 23.9 70 54.1"><path fill="#00D3E6" d="M.6 51h16.7c1.3 0 1.3-1.3 0-1.3H.6c-1.2 0-1.2 1.3 0 1.3zM.6 44.6h16.7c1.3 0 1.3-1.3 0-1.3H.6c-1.2 0-1.2 1.3 0 1.3zM1.6 38.2H10c1.3 0 1.3-1.3 0-1.3H1.6c-1.2.1-1.2 1.3 0 1.3z"/><path fill="none" stroke="#444" stroke-width="2" stroke-miterlimit="10" d="M25.2 34.9c-3.7-6.6-11.3-10.5-19.2-9-10 1.7-16.6 11.3-14.9 21.3 1.1 6.4 5.4 11.4 11 13.7M46.2 44.1H27.3c0 4.5-1.7 8.6-4.4 11.8l1 5.2-4.9-1.7c-2.9 1.9-6.3 3-10 3h-.5V69c0 2.8 2.3 5.1 5.1 5.1h32.6c2.8 0 5.1-2.3 5.1-5.1V49.3c0-2.9-2.3-5.2-5.1-5.2z"/></svg>