<svg xmlns="http://www.w3.org/2000/svg" viewBox="-272 395.3 50.6 50.6"><g fill="none" stroke="#0A64FF" stroke-width="1.75" stroke-miterlimit="10"><path d="M-237.3 428.7v-9.3c0-1.8-.7-3.3-2-4.6-1.3-1.3-2.9-2-4.8-2s-3.4.7-4.8 2c-1.3 1.3-1.9 2.8-2 4.6M-254 408.8c-.3-.3-.6-.4-1-.4s-.7.1-1 .4c-.3.3-.4.6-.4 1s.1.7.4 1c.3.3.6.4 1 .4s.7-.1 1-.4c.3-.3.4-.6.4-1s-.1-.7-.4-1zM-250.8 428.7v-9.3M-250.8 419.4v-6.1"/><path d="M-229.8 403.6c-4.7-4.7-10.3-7-16.9-7-6.6 0-12.2 2.3-16.9 7s-7 10.3-7 16.9c0 6.6 2.3 12.2 7 16.9 4.7 4.7 10.3 7 16.9 7 3.6 0 7-.7 10-2.1.8-.4 1.6-.8 2.4-1.3 1.6-1 3.1-2.2 4.5-3.6 4.7-4.7 7-10.3 7-16.9.1-6.5-2.3-12.2-7-16.9zM-255.2 428.7v-15.4"/><g><path d="M-237.3 428.7v-9.3c0-1.8-.7-3.3-2-4.6-1.3-1.3-2.9-2-4.8-2s-3.4.7-4.8 2c-1.3 1.3-1.9 2.8-2 4.6M-254 408.8c-.3-.3-.6-.4-1-.4s-.7.1-1 .4c-.3.3-.4.6-.4 1s.1.7.4 1c.3.3.6.4 1 .4s.7-.1 1-.4c.3-.3.4-.6.4-1s-.1-.7-.4-1zM-250.8 428.7v-9.3M-250.8 419.4v-6.1"/><path d="M-229.8 403.6c-4.7-4.7-10.3-7-16.9-7-6.6 0-12.2 2.3-16.9 7s-7 10.3-7 16.9c0 6.6 2.3 12.2 7 16.9 4.7 4.7 10.3 7 16.9 7 3.6 0 7-.7 10-2.1.8-.4 1.6-.8 2.4-1.3 1.6-1 3.1-2.2 4.5-3.6 4.7-4.7 7-10.3 7-16.9.1-6.5-2.3-12.2-7-16.9zM-255.2 428.7v-15.4"/></g></g></svg>