<svg preserveAspectRatio="xMinYMin meet" opacity=".6" xmlns="http://www.w3.org/2000/svg" width="56.098" height="55.348" viewBox="0 0 56.098 55.348"><path d="M55.253 49.68l-6.63-6.633-5.286-5.282c2.72-3.822 4.334-8.48 4.334-13.517C47.67 11.336 37.166.834 24.26.834 11.346.834.844 11.336.844 24.248c0 12.91 10.502 23.413 23.414 23.413 5.39 0 10.35-1.852 14.313-4.924l9.08 9.078c.11.11.234.2.355.29l2.413 2.41 4.835-4.834zM24.26 42.152c-9.874 0-17.906-8.032-17.906-17.905S14.384 6.342 24.26 6.342c9.87 0 17.904 8.032 17.904 17.905 0 4.107-1.406 7.888-3.74 10.91-.773 1-1.64 1.92-2.603 2.736-3.12 2.65-7.155 4.26-11.56 4.26z"/></svg>