<svg xmlns="http://www.w3.org/2000/svg" viewBox="-272 395.3 50.6 50.6"><path fill="none" stroke="#00B2AC" stroke-miterlimit="10" d="M-234.6 413.6z"/><path fill="none" stroke="#00B2AC" stroke-width="1.75" stroke-miterlimit="10" d="M-234.8 413.7c.9-.9 1.6-1.8 2.2-2.6-.8.3-1.7.5-2.6.8-.3.1-.6.1-.9.2l-.2-.2c-1.1-1.2-2.5-1.7-4.1-1.7-1.6 0-3 .6-4.1 1.7-1.2 1.1-1.7 2.5-1.7 4.1 0 .4 0 .8.1 1.3-4.8.1-8.8-1.9-12.1-5.9-1.3 2.8-.7 5.4 1.6 7.8-.9 0-1.7-.2-2.4-.6h-.1c0 .4.1.7.1 1 .4 2.2 1.9 3.8 4.5 4.8-1.2.5-2.4.5-3.4-.1 1.1 2.3 3.2 3.7 6.2 4.2-2.1 1.7-4.5 2.5-7.1 2.5 2.5 1.5 5.2 2.2 8.3 2.2h.8c4.2-.2 7.7-1.8 10.7-4.7 3.2-3.2 4.8-7 4.8-11.5v-1.4c1-.6 1.9-1.4 2.7-2.6-1.3.5-2.3.7-3.3.7z"/><path fill="none" stroke="#00B7B7" stroke-width="1.75" stroke-miterlimit="10" d="M-246.7 396.7c-6.6 0-12.2 2.3-16.9 7-.4.5-.9.9-1.3 1.4-3.8 4.4-5.7 9.6-5.7 15.5s1.9 11.1 5.7 15.5c.4.5.8.9 1.3 1.4 4.7 4.7 10.3 7 16.9 7 6.6 0 12.2-2.3 16.9-7 4.7-4.7 7-10.3 7-16.9s-2.3-12.2-7-16.9c-4.7-4.7-10.3-7-16.9-7z"/></svg>