<svg xmlns="http://www.w3.org/2000/svg" width="19.121" height="19.199" viewBox="0 0 19.121 19.199"><path fill="#555" d="M13.028 2.198c2.572 1.168 4.364 3.664 4.676 6.624h1.168C18.404 3.99 14.43.25 9.522.25h-.545l2.96 2.96 1.09-1.012zm-4.91-.624c-.465-.467-1.17-.467-1.637 0L1.498 6.56c-.468.47-.468 1.17 0 1.637l9.348 9.352c.468.463 1.168.463 1.636 0l4.99-4.99c.466-.467.466-1.168 0-1.635l-9.353-9.35zm3.587 15.195L2.353 7.416 7.34 2.43l9.348 9.352-4.983 4.987zM6.017 17c-2.572-1.167-4.364-3.66-4.676-6.623H.25C.636 15.21 4.61 18.95 9.52 18.95h.544l-2.96-2.96L6.017 17zm0 0"/></svg>