<svg xmlns="http://www.w3.org/2000/svg" viewBox="-272 395.3 50.6 50.6"><path fill="none" stroke="#F7B219" stroke-width="1.75" stroke-miterlimit="10" d="M-259.1 417.6c-.7.7-1.1 1.6-1.1 2.7s.4 1.9 1.1 2.7c.7.7 1.6 1.1 2.7 1.1s1.9-.4 2.7-1.1l.2-.2c.6-.7.9-1.5.9-2.5s-.3-1.8-1-2.5l-.2-.2c-.7-.7-1.6-1.1-2.7-1.1-1 0-1.9.4-2.6 1.1zM-243.3 409.3c-.7.7-1.1 1.6-1.1 2.7 0 .8.2 1.6.7 2.3.1.1.2.3.4.4.7.7 1.6 1.1 2.7 1.1s1.9-.4 2.7-1.1c.7-.7 1.1-1.6 1.1-2.7s-.4-1.9-1.1-2.7c-.7-.7-1.6-1.1-2.7-1.1s-1.9.4-2.7 1.1zM-244.2 413.3l-9.4 4.5"/><path fill="none" stroke="#F7B219" stroke-width="1.75" stroke-miterlimit="10" d="M-246.7 396.7c-6.6 0-12.2 2.3-16.9 7-4.7 4.7-7 10.3-7 16.9 0 6.6 2.3 12.2 7 16.9 4.7 4.7 10.3 7 16.9 7 3.6 0 6.9-.7 10-2.1.8-.4 1.6-.8 2.4-1.3 1.6-1 3.1-2.2 4.5-3.6 4.7-4.7 7-10.3 7-16.9 0-6.6-2.3-12.2-7-16.9s-10.3-7-16.9-7z"/><path fill="none" stroke="#F7B219" stroke-width="1.75" stroke-miterlimit="10" d="M-243.3 427.1l-.2.2c-.6.7-1 1.5-1 2.5 0 1.1.4 1.9 1.1 2.7.7.7 1.6 1.1 2.7 1.1s1.9-.4 2.7-1.1c.7-.7 1.1-1.6 1.1-2.7s-.4-1.9-1.1-2.7c-.7-.7-1.6-1.1-2.7-1.1s-1.9.4-2.6 1.1zM-244 427.9l-9.6-5.1"/></svg>