<svg preserveAspectRatio="none" xmlns="http://www.w3.org/2000/svg" width="960" height="257.8" viewBox="0 0 960 257.8"><g opacity=".28"><linearGradient id="a" gradientUnits="userSpaceOnUse" x1="1586.786" y1="-110.577" x2="1170.794" y2="-91.13" gradientTransform="matrix(-.965 .018 -.019 -1 1531.52 76.1)"><stop offset=".004" stop-color="#FFF" stop-opacity="0"/><stop offset=".502" stop-color="#7E7E7E" stop-opacity=".5"/><stop offset="1"/></linearGradient><path fill="url(#a)" d="M97.482 257.8h219.042L312.9 130.7"/><linearGradient id="b" gradientUnits="userSpaceOnUse" x1="1697.477" y1="-53.898" x2="1162.33" y2="-130.21" gradientTransform="matrix(-.965 .018 -.019 -1 1531.52 76.1)"><stop offset=".004" stop-color="#FFF" stop-opacity="0"/><stop offset=".502" stop-color="#7E7E7E" stop-opacity=".5"/><stop offset="1"/></linearGradient><path fill="url(#b)" d="M.6 224.8l-.6.66v32.34h97.482L312.9 130.7"/><linearGradient id="c" gradientUnits="userSpaceOnUse" x1="1811.677" y1="-115.397" x2="1240.197" y2="64.849" gradientTransform="matrix(-.965 .018 -.019 -1 1531.52 76.1)"><stop offset="0" stop-color="#FFF" stop-opacity="0"/><stop offset=".412" stop-color="#7E7E7E" stop-opacity=".5"/><stop offset="1"/></linearGradient><path fill="url(#c)" d="M312.9 130.7L0 59.654v144.382L.6 224.8"/><linearGradient id="d" gradientUnits="userSpaceOnUse" x1="886.885" y1="-96.812" x2="1263.567" y2="-96.812" gradientTransform="matrix(-.965 .018 -.019 -1 1531.52 76.1)"><stop offset=".004" stop-color="#FFF" stop-opacity="0"/><stop offset=".502" stop-color="#7E7E7E" stop-opacity=".5"/><stop offset="1"/></linearGradient><path fill="url(#d)" d="M316.524 257.8h147.44L312.9 130.7"/><linearGradient id="e" gradientUnits="userSpaceOnUse" x1="886.885" y1="-98.673" x2="1263.567" y2="-98.673" gradientTransform="matrix(-.965 .018 -.019 -1 1531.52 76.1)"><stop offset=".004" stop-color="#FFF" stop-opacity="0"/><stop offset=".502" stop-color="#7E7E7E" stop-opacity=".5"/><stop offset="1"/></linearGradient><path fill="url(#e)" d="M312.9 130.7l151.064 127.1h199.55L658 203.9"/><linearGradient id="f" gradientUnits="userSpaceOnUse" x1="590.629" y1="-12.37" x2="1263.567" y2="-12.37" gradientTransform="matrix(-.965 .018 -.019 -1 1531.52 76.1)"><stop offset=".004" stop-opacity="0"/><stop offset=".502" stop-color="#7E7E7E" stop-opacity=".5"/><stop offset="1"/></linearGradient><path fill="url(#f)" d="M658 203.9L960 0 312.9 130.7"/><linearGradient id="g" gradientUnits="userSpaceOnUse" x1="583.539" y1="-196.684" x2="891.455" y2="100.186" gradientTransform="matrix(-.965 .018 -.019 -1 1531.52 76.1)"><stop offset=".502" stop-color="#7E7E7E" stop-opacity=".5"/><stop offset="1"/></linearGradient><path fill="url(#g)" d="M663.513 257.8h134.333L960 0 658 203.9"/><linearGradient id="h" gradientUnits="userSpaceOnUse" x1="1034.122" y1="254.078" x2="849.425" y2="105.108"><stop offset="0"/><stop offset="1" stop-color="#FFF"/></linearGradient><path fill="url(#h)" d="M960 257.8V0L797.846 257.8"/></g><g fill="#EDEDED"><path d="M312.9 130.7L97.482 257.8h219.042M658 203.9l-345.1-73.2 151.064 127.1h199.55"/></g></svg>