<svg xmlns="http://www.w3.org/2000/svg" xmlns:xlink="http://www.w3.org/1999/xlink" width="374.2" height="339.6" viewBox="0 0 374.2 339.6"><path fill="#B75CFF" d="M194.9 319c-162 0-162 0-162-135.8 0-147 44.7-147 176.5-147S343.6 95.4 343.6 172c0 147 0 147-148.7 147z"/><path fill="#BE6AFF" d="M79.7 56.3c18.4-11.3 34.2-12.8 39.8-9.9 9.1 4.7-6.4 21.6-20 31.2-11.4 8.1-37.3 23.5-40.6 13.7-3.3-9.7 5.1-25.4 20.8-35zM122.3 59.3c7.3-4.5 12.2-4.6 15.8-3.9 5.9 1 5.4 9.5-5.4 14.9-5 2.5-17.4 6.9-18.7 3-1.3-3.9 2-10.2 8.3-14z"/><g><ellipse transform="matrix(.981 .193 -.193 .981 15.64 -50.604)" fill="#AA77E5" cx="266.997" cy="54.802" rx="43.796" ry="7.5"/><ellipse transform="matrix(.972 .235 -.235 .972 20.233 -62.046)" fill="#E0E0E0" cx="270.797" cy="53.984" rx="34.504" ry="4.2"/><path fill="#E0E0E0" d="M243.1 45.6s10-12.7 21.9-25.2C277.4 7.4 288 0 288 0s5.6 19.7 7.4 32.1 4.2 27.1 4.2 27.1"/><path fill="#D3D0DD" d="M271.2 51.7c-1.9-1.8-.6-6 4.8-19.5 0 0 9-20.4 10.9-20.3 2.1 0 8.8 42.7 5.7 44.4-2.8 1.5-20-2.7-21.4-4.6"/><g fill="#CA9CFF"><path d="M260.5 40.7c-.2-.4 4.7-8.8 5.1-8.8s5.2 8.5 5.1 8.8c-.2.3-10 .4-10.2 0z"/><path d="M259.1 34.2c.1-.5 11.8-1.1 12.1-.7.3.4-4.9 10.7-5.5 10.8-.6.1-6.7-9.6-6.6-10.1z"/></g><g fill="#CA9CFF"><path d="M264.4 49.5c-.1-.1 1.1-2 1.2-2s1.2 1.9 1.2 2c-.1 0-2.3.1-2.4 0z"/><path d="M264.1 48c0-.1 2.7-.2 2.7-.1.1.1-1.1 2.4-1.2 2.4s-1.5-2.2-1.5-2.3z"/></g><g fill="#CA9CFF"><path d="M270.3 29.1c-.2-.1 0-4.6.2-4.7.1-.1 3.9 2.3 3.9 2.5s-3.9 2.3-4.1 2.2z"/><path d="M268.3 26.8c-.1-.2 4.5-3 4.7-2.8s.3 5.4.1 5.5c-.2.1-4.7-2.5-4.8-2.7z"/></g></g><g><linearGradient id="a" gradientUnits="userSpaceOnUse" x1="747.719" y1="780.278" x2="747.719" y2="553.445" gradientTransform="translate(-559.5 -411.4)"><stop offset="0" stop-opacity=".4"/><stop offset="1" stop-opacity=".9"/></linearGradient><path fill="url(#a)" d="M188.3 158.3c150.5 0 144.2 9.6 144.2 25.2 0 135.7-29.7 123.5-152.2 123.5S43.9 281.9 43.9 190.1c0-26.5 6.2-31.8 144.4-31.8z"/><defs><path id="b" d="M188.1 159.6c148.2 0 142.1 9.5 142.1 24.8 0 133.7-29.3 121.6-149.9 121.6S45.9 281.2 45.9 190.9c0-26.1 6.2-31.3 142.2-31.3z"/></defs><clipPath id="c"><use xlink:href="#b" overflow="visible"/></clipPath><path opacity=".32" clip-path="url(#c)" fill="#7A04BF" d="M-3.5 322s77-47.4 142.8-61.6c38.7-8.4 54.7 6 54.7 6s10.9-6.5 43-4.7c51.8 3 132 74.1 132 74.1L-3.5 322z"/><defs><path id="d" d="M188.1 159.6c148.2 0 142.1 9.5 142.1 24.8 0 133.7-29.3 121.6-149.9 121.6S45.9 281.2 45.9 190.9c0-26.1 6.2-31.3 142.2-31.3z"/></defs><clipPath id="e"><use xlink:href="#d" overflow="visible"/></clipPath><path opacity=".17" clip-path="url(#e)" fill="#7E00E4" d="M198.7 275.4s20.6-4.5 35.5-3.1c31.8 3.1 55.6 20.3 70.1 30.6 26.6 19-6.3 24.4-6.3 24.4l-105 1.6s14.4-34.9 5.7-53.5z"/><defs><path id="f" d="M188.1 159.6c148.2 0 142.1 9.5 142.1 24.8 0 133.7-29.3 121.6-149.9 121.6S45.9 281.2 45.9 190.9c0-26.1 6.2-31.3 142.2-31.3z"/></defs><clipPath id="g"><use xlink:href="#f" overflow="visible"/></clipPath><g clip-path="url(#g)"><path fill="#FFF" d="M45.7 321.6l42.7-73.4 42.6 73.4"/></g><defs><path id="h" d="M188.1 159.6c148.2 0 142.1 9.5 142.1 24.8 0 133.7-29.3 121.6-149.9 121.6S45.9 281.2 45.9 190.9c0-26.1 6.2-31.3 142.2-31.3z"/></defs><clipPath id="i"><use xlink:href="#h" overflow="visible"/></clipPath><g clip-path="url(#i)"><path fill="#FFF" d="M249.6 343.6l42.6-73.4 42.7 73.4"/></g><g><defs><path id="j" d="M188.1 159.6c148.2 0 142.1 9.5 142.1 24.8 0 133.7-29.3 121.6-149.9 121.6S45.9 281.2 45.9 190.9c0-26.1 6.2-31.3 142.2-31.3z"/></defs><clipPath id="k"><use xlink:href="#j" overflow="visible"/></clipPath><g clip-path="url(#k)"><path fill="#FFF" d="M317.2 130.6l-32.3 55.6-32.4-55.6"/></g></g><g><defs><path id="l" d="M188.1 159.6c148.2 0 142.1 9.5 142.1 24.8 0 133.7-29.3 121.6-149.9 121.6S45.9 281.2 45.9 190.9c0-26.1 6.2-31.3 142.2-31.3z"/></defs><clipPath id="m"><use xlink:href="#l" overflow="visible"/></clipPath><g clip-path="url(#m)"><path fill="#FFF" d="M282.7 147.6L240 221l-42.6-73.4"/></g></g><g><defs><path id="n" d="M188.1 159.6c148.2 0 142.1 9.5 142.1 24.8 0 133.7-29.3 121.6-149.9 121.6S45.9 281.2 45.9 190.9c0-26.1 6.2-31.3 142.2-31.3z"/></defs><clipPath id="o"><use xlink:href="#n" overflow="visible"/></clipPath><g clip-path="url(#o)"><path fill="#F3F2F3" d="M266.8 167c.2 2.9-24.7 45.2-25.3 43.5-1-3.1-3-42.8.2-45.7 2-1.7 25-.2 25.1 2.2z"/></g></g><g><defs><path id="p" d="M188.1 159.6c148.2 0 142.1 9.5 142.1 24.8 0 133.7-29.3 121.6-149.9 121.6S45.9 281.2 45.9 190.9c0-26.1 6.2-31.3 142.2-31.3z"/></defs><clipPath id="q"><use xlink:href="#p" overflow="visible"/></clipPath><g clip-path="url(#q)"><path fill="#F3F2F3" d="M293.8 165.9c.1.9-7.9 14.5-8.1 14-.3-1-1-13.7.1-14.7.6-.5 8-.1 8 .7z"/></g></g><g><defs><path id="r" d="M188.1 159.6c148.2 0 142.1 9.5 142.1 24.8 0 133.7-29.3 121.6-149.9 121.6S45.9 281.2 45.9 190.9c0-26.1 6.2-31.3 142.2-31.3z"/></defs><clipPath id="s"><use xlink:href="#r" overflow="visible"/></clipPath><g clip-path="url(#s)"><path fill="#F4F4F4" d="M110.8 294.6c.1-2.4-20.5-37.5-21-36.1-.8 2.6-2.5 35.5.2 38 1.6 1.3 20.7.1 20.8-1.9z"/></g></g><g><defs><path id="t" d="M188.1 159.6c148.2 0 142.1 9.5 142.1 24.8 0 133.7-29.3 121.6-149.9 121.6S45.9 281.2 45.9 190.9c0-26.1 6.2-31.3 142.2-31.3z"/></defs><clipPath id="u"><use xlink:href="#t" overflow="visible"/></clipPath><path clip-path="url(#u)" fill="#F4F4F4" d="M313.8 315.6c.1-2.4-20.5-37.5-21-36.1-.8 2.6-2.5 35.5.2 38 1.6 1.3 20.7.1 20.8-1.9z"/></g></g></svg>