<svg xmlns="http://www.w3.org/2000/svg" xmlns:xlink="http://www.w3.org/1999/xlink" width="279.2" height="367" viewBox="0 0 279.2 367"><path fill="#4EBCC4" d="M256.27 265.403c-.166 30.923-3.176 62.574-43.903 74.03-54.24 15.254-96.058 8.914-129.113-.865-42.51-12.576-45.648-42.17-44.707-83.176.704-30.66 10.635-125.995 18.197-152.394C69.72 57.693 87.626 37.97 123.2 21.15c9.656-2.782 20.34-3.72 32.12-2.366 43.178 4.266 68.852 37.725 81.87 75.948 8.743 25.665 10.025 50.256 11.856 66.99.445 5.677 7.436 64.27 7.224 103.68z"/><linearGradient id="a" gradientUnits="userSpaceOnUse" x1="841.886" y1="650.295" x2="805.42" y2="601.872" gradientTransform="matrix(.994 .114 -.114 .994 -529.3 -404.618)"><stop offset="0"/><stop offset="1" stop-opacity=".5"/></linearGradient><path opacity=".08" fill="url(#a)" d="M247.252 285.19s1.202 16.416-16.196 33.503c-11.87 11.657-32.958 18.167-45.474 14.735s7.108-26.644 20.017-37.7c14.038-12.025 41.045-29.692 41.652-10.538z"/><path opacity=".05" d="M244.257 256.484s.777 6.61-5.948 13.823c-4.59 4.92-12.993 7.925-18.11 6.76-5.117-1.163 2.398-10.89 7.417-15.586 5.458-5.106 16.054-12.723 16.64-4.996z"/><g><path stroke="#000" stroke-miterlimit="10" d="M117.682 51.393l-.74-1.506c-.51-.924-1.2-2.22-2.21-3.453-1.02-1.226-2.275-2.354-3.714-3.038-1.414-.725-2.974-1.138-4.805-1.395-1.824-.27-3.762-.297-5.666-.156-1.894.17-3.748.517-5.362.973-1.615.452-2.982.998-3.96 1.4l-1.54.677s.112-.597.463-1.663c.38-1.037 1.037-2.55 2.293-4.188 1.25-1.63 3.12-3.38 5.68-4.69 2.554-1.273 5.842-2.103 9.395-1.594 1.765.246 3.48.815 5.005 1.654 1.527.838 2.836 1.97 3.844 3.2 1.02 1.225 1.726 2.566 2.15 3.844.46 1.27.608 2.492.664 3.56.07 2.16-.428 3.756-.78 4.803-.424 1.045-.716 1.573-.716 1.573zM131.706 47.477s-.264-.51-.68-1.404c-.42-.89-.995-2.16-1.654-3.648-.64-1.43-1.39-3.096-2.202-4.91-.795-1.706-1.637-3.433-2.474-4.79-.847-1.382-1.448-2.238-2.432-3.06-.98-.806-2.458-1.45-3.91-1.8-1.447-.36-2.81-.572-3.77-.702-.96-.118-1.54-.22-1.54-.22s.35-.436 1.07-1.16c.73-.712 1.855-1.672 3.564-2.536 1.687-.838 4.136-1.573 7.18-1.017 1.493.294 3.08.94 4.46 1.948 1.372 1.008 2.515 2.31 3.36 3.712 1.697 2.832 2.146 5.65 2.21 8.066.037 2.43-.365 4.525-.857 6.23-.498 1.705-1.093 3.025-1.55 3.92-.455.895-.774 1.37-.774 1.37zM146.682 39.894s-1.16-1.753-2.323-4.526c-.6-1.36-1.187-3-1.786-4.536-.575-1.56-1.205-2.962-1.677-3.62-.13-.154-.183-.374-.332-.494-.06-.076-.11-.16-.155-.258-.052-.093-.165-.156-.237-.248-.08-.088-.157-.184-.232-.29-.07-.11-.225-.18-.332-.28-.255-.178-.42-.44-.744-.612-.3-.187-.597-.39-.893-.602-.283-.226-.657-.368-.973-.566l-.968-.572-.975-.497-3.145-1.676c-.778-.43-1.225-.72-1.225-.72s.42-.294 1.208-.738c.79-.448 1.943-1.06 3.486-1.522.384-.12.787-.25 1.22-.356.44-.082.903-.157 1.39-.223.492-.05.98-.16 1.537-.13.552.013 1.128.043 1.723.094.585.023 1.252.255 1.902.42.33.11.657.17.997.338.338.164.68.34 1.022.526.34.197.69.364 1.015.616.323.26.643.535.958.82.665.55 1.15 1.253 1.635 1.97l.35.54.252.546c.163.365.316.73.458 1.097.284.732.37 1.396.517 2.082.182 1.31.19 2.523.055 3.577-.227 2.15-.823 3.855-1.386 5.294-1.17 2.83-2.344 4.544-2.344 4.544zM162.192 40.274s-.048-.54-.08-1.43c-.017-.443-.03-.972-.032-1.56-.01-.592-.1-1.268-.128-1.96-.027-.35-.02-.702-.06-1.066-.05-.358-.098-.727-.148-1.107-.055-.37-.05-.745-.13-1.115-.082-.37-.154-.737-.213-1.103-.305-1.452-.633-2.81-1.11-3.97-.446-1.176-.88-2.217-1.546-3.277-.308-.56-.737-1-1.142-1.537-.467-.403-.91-.953-1.43-1.284l-.747-.575c-.263-.155-.512-.3-.747-.44l-.702-.413c-.224-.122-.435-.198-.63-.29l-1.286-.58s.365-.338 1.152-.872c.198-.128.42-.29.677-.42.256-.12.543-.248.86-.377.32-.127.67-.264 1.05-.387.38-.083.794-.162 1.24-.232.9-.192 1.89-.105 3.01-.023 1.07.22 2.282.495 3.424 1.133 2.32 1.167 4.53 3.468 5.573 6.35.227.717.458 1.44.585 2.15.086.71.142 1.415.17 2.1.025.684-.096 1.327-.168 1.96l-.146.93c-.067.298-.168.58-.255.862-.182.56-.374 1.096-.573 1.604-.2.507-.492.947-.736 1.385-.255.43-.51.837-.762 1.217-.263.373-.57.695-.84 1.01-.565.614-1.056 1.157-1.565 1.57-.518.41-.976.74-1.356.997-.757.514-1.208.75-1.208.75z"/></g><g><linearGradient id="b" gradientUnits="userSpaceOnUse" x1="707.931" y1="602.457" x2="707.931" y2="476.237" gradientTransform="translate(-559.5 -384)"><stop offset="0" stop-opacity=".5"/><stop offset="1"/></linearGradient><path fill="url(#b)" d="M62.7 120.2c1.2 15.2 3.1 26 6.6 39.1 6.9 25.9 35.6 49.3 66.3 52.1 32.2 2.9 69.4-5 83.9-36.5 3.2-5.5 5.8-11.3 7.9-17.3 2.2-5.7 3.9-11.8 5.1-18.1.8-6.6 2.8-16.6.8-17.6-40-11.2-81.7-16.2-122.8-11.7-6.9.8-13.7 1.8-20.5 3.1-6.8 1.3-13.5 3-20.1 5-4.9 1-7.2 1.9-7.2 1.9z"/><defs><path id="c" d="M62.7 120.2c-.2 13.2 2.4 26.6 7.5 39.1 2.5 6.3 5.6 12.3 9.3 18 17.5 19.3 33.2 30.7 56 32.7 31.7 2.9 68.4-4.8 82.6-35.5 3.1-5.4 5.7-11 7.8-16.9 2.2-5.6 3.8-11.5 5-17.6.7-6.4 2.7-16.1.7-17.1-52.5-14.5-108-18.4-161.3-3.7-4.8.7-7.6 1-7.6 1z"/></defs><clipPath id="d"><use xlink:href="#c" overflow="visible"/></clipPath><g clip-path="url(#d)"><path opacity=".2" fill="#638FBA" d="M11.4 214.8s51.5-31.3 95.4-40.7c25.9-5.5 36.6 3.9 36.6 3.9s7.3-4.3 28.7-3.1c34.6 2 88.2 48.9 88.2 48.9l-248.9-9z"/><path opacity=".1" fill="#75C9BC" d="M146.5 184s13.8-3 23.7-2.1c21.3 2 37.1 13.4 46.8 20.2 17.8 12.5-4.2 16.1-4.2 16.1l-70.2 1.1c.1 0 9.7-23 3.9-35.3z"/></g><defs><path id="e" d="M62.7 120.2c-.2 13.2 2.4 26.6 7.5 39.1 2.5 6.3 5.6 12.3 9.3 18 17.5 19.3 33.2 30.7 56 32.7 31.7 2.9 68.4-4.8 82.6-35.5 3.1-5.4 5.7-11 7.8-16.9 2.2-5.6 3.8-11.5 5-17.6.7-6.4 2.7-16.1.7-17.1-52.5-14.5-108-18.4-161.3-3.7-4.8.7-7.6 1-7.6 1z"/></defs><clipPath id="f"><use xlink:href="#e" overflow="visible"/></clipPath><path clip-path="url(#f)" fill="#FFF" d="M100.8 208.3l16-15 7.9 17.3"/><defs><path id="g" d="M62.7 120.2c-.2 13.2 2.4 26.6 7.5 39.1 2.5 6.3 5.6 12.3 9.3 18 17.5 19.3 33.2 30.7 56 32.7 31.7 2.9 68.4-4.8 82.6-35.5 3.1-5.4 5.7-11 7.8-16.9 2.2-5.6 3.8-11.5 5-17.6.7-6.4 2.7-16.1.7-17.1-52.5-14.5-108-18.4-161.3-3.7-4.8.7-7.6 1-7.6 1z"/></defs><clipPath id="h"><use xlink:href="#g" overflow="visible"/></clipPath><path clip-path="url(#h)" fill="#FFF" d="M193.9 209.8l-15.8-16.7-8.7 17.9"/><g><defs><path id="i" d="M62.7 120.2c-.2 13.2 2.4 26.6 7.5 39.1 2.5 6.3 5.6 12.3 9.3 18 17.5 19.3 33.2 30.7 56 32.7 31.7 2.9 68.4-4.8 82.6-35.5 3.1-5.4 5.7-11 7.8-16.9 2.2-5.6 3.8-11.5 5-17.6.7-6.4 2.7-16.1.7-17.1-52.5-14.5-108-18.4-161.3-3.7-4.8.7-7.6 1-7.6 1z"/></defs><clipPath id="j"><use xlink:href="#i" overflow="visible"/></clipPath><path clip-path="url(#j)" fill="#FFF" d="M119.5 108.6l-22.6 43.2-20.6-37.4s11.2-2 21.6-3.4 21.6-2.4 21.6-2.4z"/></g><g><defs><path id="k" d="M62.7 120.2c-.2 13.2 2.4 26.6 7.5 39.1 2.5 6.3 5.6 12.3 9.3 18 17.5 19.3 33.2 30.7 56 32.7 31.7 2.9 68.4-4.8 82.6-35.5 3.1-5.4 5.7-11 7.8-16.9 2.2-5.6 3.8-11.5 5-17.6.7-6.4 2.7-16.1.7-17.1-52.5-14.5-108-18.4-161.3-3.7-4.8.7-7.6 1-7.6 1z"/></defs><clipPath id="l"><use xlink:href="#k" overflow="visible"/></clipPath><path clip-path="url(#l)" fill="#F4F4F4" d="M113.4 113.3c1.1 1.4-14.3 29-15 29.1-.5.1-3.3-22.5-1.8-26.7.5-1.7 15.9-3.5 16.8-2.4z"/></g><g><defs><path id="m" d="M62.7 120.2c-.2 13.2 2.4 26.6 7.5 39.1 2.5 6.3 5.6 12.3 9.3 18 17.5 19.3 33.2 30.7 56 32.7 31.7 2.9 68.4-4.8 82.6-35.5 3.1-5.4 5.7-11 7.8-16.9 2.2-5.6 3.8-11.5 5-17.6.7-6.4 2.7-16.1.7-17.1-52.5-14.5-108-18.4-161.3-3.7-4.8.7-7.6 1-7.6 1z"/></defs><clipPath id="n"><use xlink:href="#m" overflow="visible"/></clipPath><path clip-path="url(#n)" fill="#FFF" d="M214.1 115.8l-15.1 27-15-32.2s9.4 1.2 16.3 2.4c7.3 1.3 13.8 2.8 13.8 2.8z"/></g><g><defs><path id="o" d="M62.7 120.2c-.2 13.2 2.4 26.6 7.5 39.1 2.5 6.3 5.6 12.3 9.3 18 17.5 19.3 33.2 30.7 56 32.7 31.7 2.9 68.4-4.8 82.6-35.5 3.1-5.4 5.7-11 7.8-16.9 2.2-5.6 3.8-11.5 5-17.6.7-6.4 2.7-16.1.7-17.1-52.5-14.5-108-18.4-161.3-3.7-4.8.7-7.6 1-7.6 1z"/></defs><clipPath id="p"><use xlink:href="#o" overflow="visible"/></clipPath><path clip-path="url(#p)" fill="#F4F4F4" d="M209.5 118.8c.9 1.2-8.7 18.1-9.6 17.8-.9-.3-.8-16.8-.2-19.5.2-1.3 9.1.9 9.8 1.7z"/></g><g><defs><path id="q" d="M62.7 120.2c-.2 13.2 2.4 26.6 7.5 39.1 2.5 6.3 5.6 12.3 9.3 18 17.5 19.3 33.2 30.7 56 32.7 31.7 2.9 68.4-4.8 82.6-35.5 3.1-5.4 5.7-11 7.8-16.9 2.2-5.6 3.8-11.5 5-17.6.7-6.4 2.7-16.1.7-17.1-52.5-14.5-108-18.4-161.3-3.7-4.8.7-7.6 1-7.6 1z"/></defs><clipPath id="r"><use xlink:href="#q" overflow="visible"/></clipPath><path clip-path="url(#r)" fill="#F4F1F0" d="M178.6 205.8c-.8-.3 0-9.3.5-9.4.6-.1 5.6 5.4 6.2 6.9.3.7-6.1 2.7-6.7 2.5z"/></g><g><defs><path id="s" d="M62.7 120.2c-.2 13.2 2.4 26.6 7.5 39.1 2.5 6.3 5.6 12.3 9.3 18 17.5 19.3 33.2 30.7 56 32.7 31.7 2.9 68.4-4.8 82.6-35.5 3.1-5.4 5.7-11 7.8-16.9 2.2-5.6 3.8-11.5 5-17.6.7-6.4 2.7-16.1.7-17.1-52.5-14.5-108-18.4-161.3-3.7-4.8.7-7.6 1-7.6 1z"/></defs><clipPath id="t"><use xlink:href="#s" overflow="visible"/></clipPath><path clip-path="url(#t)" fill="#F4F1F0" d="M114.1 204.9c-.7-.5 2.2-7.5 2.8-7.5.6 0 3.7 7.5 3.9 9.1.1.7-6.2-1.3-6.7-1.6z"/></g></g></svg>