<svg xmlns="http://www.w3.org/2000/svg" viewBox="-262 394.4 70 52.5"><path fill="none" stroke="#444" stroke-width="1.9" stroke-miterlimit="10" d="M-240.7 443.2c1.4.2 2.8.3 4.3.3 6.2 0 11.7-2.1 14.9-5.2 1.1.9 2.4 1.5 4 1.5 3.4 0 7.7-2.9 8.6-6.2 1.7-6.2 3-10.8 2.7-16.9-.2-4.4-1.7-8.9-4.3-12.6.2-.6.2-1.2.1-1.9l-.2-1.6c-.4-2.6-2.8-4.5-5.4-4.1l-5.7.8c-2.6.4-4.4 2.8-4.1 5.4l.2 1.6c.2 1.3.9 2.4 1.8 3.1.3 1.6 1.8 2.6 3.4 2.4.8-.1 1.5-.6 2-1.2-.4 3.1-1.2 5.1-1.3 9.1-.1 3.2.1 6 1 8.5-3.5-3.1-11.1-6.2-17.7-6.2-4.6 0-8.7 1.1-11.9 3"/><path fill="none" stroke="#00D3E6" stroke-miterlimit="10" d="M-245 429.3c5.4-4.3 13.6-4.9 19.8 1.6"/></svg>